<svg width="64" height="64" viewBox="0 0 64 64" fill="none" xmlns="http://www.w3.org/2000/svg">
<path d="M10.5 55.5C11.0523 55.5 11.5 55.0523 11.5 54.5L11.5 45.5C11.5 44.9477 11.0523 44.5 10.5 44.5C9.94772 44.5 9.5 44.9477 9.5 45.5L9.5 53.5L1.5 53.5C0.947715 53.5 0.5 53.9477 0.5 54.5C0.5 55.0523 0.947715 55.5 1.5 55.5L10.5 55.5ZM9.29289 54.7071L9.79289 55.2071L11.2071 53.7929L10.7071 53.2929L9.29289 54.7071Z" fill="#E6E6E6"/>
<path d="M53 8C52.4477 8 52 8.44772 52 9V18C52 18.5523 52.4477 19 53 19C53.5523 19 54 18.5523 54 18V10L62 10C62.5523 10 63 9.55228 63 9C63 8.44772 62.5523 8 62 8H53ZM54.2071 8.79289L53.7071 8.29289L52.2929 9.70711L52.7929 10.2071L54.2071 8.79289Z" fill="#E6E6E6"/>
<circle cx="32" cy="32" r="31" stroke="#E6E6E6" stroke-width="2"/>
</svg>
